<?xml version="1.0" encoding="utf-8"?>
<!DOCTYPE svg PUBLIC "-//W3C//DTD SVG 1.1//EN" "http://www.w3.org/Graphics/SVG/1.1/DTD/svg11.dtd">
<svg version="1.1" id="Layer_1" xmlns="http://www.w3.org/2000/svg" xmlns:xlink="http://www.w3.org/1999/xlink" x="0px" y="0px"
	 viewBox="0 0 2000 1791" enable-background="new 0 0 2000 1791" xml:space="preserve">
<g>
	<path opacity="0.91" stroke="#000000" stroke-width="0.0938" enable-background="new    " d="M1550.16,27.24
		c0.85-1.88,3.11-1.57,4.83-1.71c109.34,0.03,218.6801,0,328.01,0.01c6.97,0.15,13.97-0.26,20.9399,0.12
		c4.66,3.37,8.2101,8.06,12.4601,11.93c16.1699,16.17,32.3199,32.35,48.52,48.49c1.38,1.25,2.2899,2.92,2.09,4.85
		c-0.04,116.03,0.04,232.07-0.04,348.1c0.3,2.34-1.7899,4.02-4,3.65c-29.35,0.06-58.6899-0.04-88.0399,0.05
		c-1.8401,0.01-3.8401-0.02-5.0801-1.55c-19.0499-18.96-37.97-38.05-57.0599-56.97c-1.66-1.84-4.4701-3.36-4.1801-6.2
		c0.0701-21.01-0.04-42.03,0.0701-63.05c-11.91,10.97-22.9801,22.84-34.5601,34.16c-52.5,52.49-104.99,105.01-157.51,157.49
		c-1.9399,2.08-4.42,3.8-5.6899,6.39c8.8999,13.06,17.5499,26.38,24.4299,40.65c11.3201,22.92,19.2001,47.52,23.47,72.71
		c3.9501,22.56,4.15,45.6,2.6001,68.4c-2.89,41.12-12.87,81.7-29.03,119.6c-15.08,35.6-35.26,68.84-57.9301,100.08
		c-23.11,31.8-48.87,61.59-75.86,90.14c-51.47,53.85-104.34,106.35-157.49,158.54c-47.59,46.74-95.74,92.91-143.04,139.9401
		c-2.2999,2.0099-4.1399,4.9399-7.11,5.9199c-2.9199-0.47-4.62-3.4-6.72-5.22C1082.17,1200.73,976.3,1101.54,874.66,998.08
		c-52.47,54.71-105.91,108.48-160.17,161.41c-34.49,33.85-69.12,67.55-103.73,101.25c-1.32,1.03-1.69,2.6-1.57,4.23
		c0.02,39.41,0.04,78.8201-0.01,118.23c24.26,0.5,48.55,0.0701,72.82,0.2101c30.02-0.01,60.03,0.0299,90.05-0.02
		c1.49-0.0701,3.09,0.16,4.14,1.37c20,20.03,40,40.0599,60.05,60.03c1.24,1.02,1.4,2.64,1.37,4.1599
		c-0.07,29.67,0,59.3501-0.03,89.01c0.4,2.63-2.15,4.26-4.53,3.87c-53.02,0-106.03,0-159.05,0c-21.6,0.11-43.21-0.23-64.81,0.17
		c0.03,68.67,0.01,137.33,0.02,206c-0.17,6.61,0.34,13.25-0.2401,19.86c-0.23,2.4301-3.14,2.17-4.92,2.25
		c-29.37-0.0499-58.74,0.02-88.1-0.04c-2.51,0.3101-4.25-1.59-5.83-3.1899c-19.56-19.8-39.47-39.29-58.96-59.15
		c-0.96-7.52-0.16-15.1699-0.42-22.73c0.02-47.67-0.02-95.34,0.02-143c-54.57-0.42-109.16,0.01-163.74-0.22
		c-1.84,0.13-3.15-1.29-4.38-2.41c-19.48-19.53-38.99-39.03-58.52-58.51c-2.15-1.67-1.59-4.49-1.64-6.84
		c0.18-29.01-0.07-58.03,0.13-87.04c-0.37-2.6699,2.19-3.8199,4.44-3.5699c57.65,0,115.3,0,172.95,0
		c16.97-0.11,33.94,0.22,50.9-0.16c0.04-54.42,0.01-108.84,0.02-163.25c-0.21-6.2,0.44-12.45-0.3-18.6
		c-24.67-24.66-49.98-48.7001-74.83-73.1901c-49.47-48.1899-98.63-96.71-146.93-146.09c-20.13-20.87-40.61-41.43-59.84-63.14
		c-26.64-29.78-51.6-61.15-73.25-94.76c-20.73-32.16-38.16-66.62-49.92-103.09c-12.88-39.98-19.04-82.16-17.68-124.16
		c2.01-48.02,17.88-95.28,44.71-135.11c16.45-24.33,36.68-46.17,60.09-63.95c30.21-23.08,65.66-39.39,102.98-46.85
		c31.62-6.25,64.22-5.38,96.07-1.46c42,5.19,82.88,20.33,117.44,44.87c18.22,12.65,34.5,27.82,50.24,43.37
		c24.66-25.31,52.36-48.28,84.35-63.71c40.12-20.05,85.43-27.46,129.96-27.57c33.74-0.43,67.49,6.49,98.44,19.89
		c2.07,1.18,4.31,0.1,6.3-0.71c17.54-7.56,36.03-12.87,54.87-15.98c21.6-3.77,43.65-3.68,65.47-2.45
		c28.97,1.86,57.89,7.16,85.06,17.56c22.51,8.58,43.75,20.46,62.97,34.97c15.27,11.45,29.27,24.48,42.6901,38.01
		c24.1599-24.44,50.83-47.01,81.7799-62.38c36.8201-18.94,78.3-27.23,119.4501-28.63c20.38-0.87,40.8999,0.08,60.95,4.01
		c30.53,5.75,59.8,17.69,86.08,34.21c56.54-56.12,112.7001-112.64,169.0901-168.91c10.61-10.74,21.49-21.24,31.96-32.12
		c-16.04-0.28-32.08-0.04-48.12-0.12c-6.33-0.51-13.11,1.08-19.13-0.84c-20.52-20.12-40.63-40.69-61.1-60.86
		c-1.14-1.06-0.75-2.79-0.89-4.16c0.08-26.68,0.02-53.37,0.04-80.05C1549.96,34.42,1549.66,30.8,1550.16,27.24 M1556.03,31.81
		c-0.03,28.35-0.0801,56.7,0.02,85.05c63.6599-0.03,127.3199-0.06,190.98,0.02c2.87-0.59,5.08,3,2.99,5.17
		c-89.27,89.37-178.65,178.64-267.9501,267.99c-1.48,1.88-4.1799,2.84-6.1399,1.06c-39.51-25.7-86.77-39.38-133.9301-38.35
		c-44.9301,0.24-90.63,8.49-130.63,29.65c-29.45,15.39-55.02,37.15-78.11,60.84c-1.67,2.41-4.99,2.67-6.6901,0.15
		c-24.5699-25.31-52.11-48.33-83.97-63.9c-31.64-15.54-66.62-23.49-101.68-25.86c-21.56-1.34-43.35-1.59-64.73,1.95
		c-18.56,2.8-36.56,8.36-54.05,15.06c17.96,9.08,35.21,19.68,50.76,32.51c11.91,9.66,22.79,20.5,33.47,31.48
		c1.57,1.51,3.06,3.73,5.58,3.3c25.88-0.31,51.97,3.61,76.2,12.88c22.67,8.6,43.53,21.48,62.33,36.7
		c28.65,23.16,53.46,50.51,79.4401,76.51c26.98-27.38,53.0499-55.93,83.37-79.74c27.5299-21.64,59.9299-37.76,94.71-43.32
		c24.8199-3.92,50.7-5.01,75.11,1.92c34.37,9.64,64.88,31.08,87.24,58.73c22.37,27.19,37.03,61.05,39.51,96.32
		c1.13,28.03-2.0499,56.24-9.4299,83.31c-8.8501,33.19-24.39,64.28-43.37,92.79c-21.25,32.08-46.4301,61.33-72.6901,89.37
		c-23.5,24.81-47.61,49.04-71.5,73.47c-55.99,56.67-112.11,113.23-168.49,169.52c-4.66,4.3099-8.48,9.6-13.72,13.23
		c-2.66,0.3199-4.37-2.5599-6.1801-4.09C1054.87,1045.8,985.16,976.16,916.26,905.72c-24.4-24.95-48.92-49.83-71.54-76.42
		c-29.25-34.39-56.12-71.56-73.61-113.42c-14.78-35.28-22.12-73.62-21.46-111.86c0.53-24.35,7.27-48.39,18.37-70
		c5.08-10.22,11.64-19.57,18.21-28.85c-37.43-1.72-75.77,5.85-108.38,24.71c-1.66,0.85-1.97,2.82-2.56,4.41
		c-5.27,17.1-8.58,34.8-10.08,52.62c-1.61,20.9901-0.65,42.11,1.64,63c4.13,37.6201,14.85,74.3701,30.38,108.82
		c18.62,41.42,43.81,79.57,71.99,115.06c23.01,29.1,48.09,56.48,73.97,83.04c80.77,83.55,164.45,164.21,247.6201,245.3599
		c13.1299,12.67,25.83,25.78,39.08,38.3301c101.01-99.52,203.91-197.17,301.96-299.64c27.85-29.39,54.4301-60.06,78.1801-92.88
		c24.5499-34.06,45.95-70.63,61.03-109.89c16.6799-42.91,24.8799-89.06,24.11-135.09c-0.5801-53.16-19.4-105.58-51.0601-148.11
		c-1.13-1.52-2.36-3.78-0.89-5.48c88.4301-88.3,176.75-176.72,265.13-265.07c1.17-1.09,2.75-2.64,4.53-1.76
		c2.29,0.72,1.84,3.47,2.01,5.35c-0.05,39.35-0.01,78.7-0.02,118.05c0.14,23.23-0.3,46.47,0.21,69.69
		c28.27-0.09,56.54-0.13,84.8,0.01c0.1899-7.23,0.09-14.47,0.12-21.7c-0.02-107.4,0.03-214.79-0.03-322.19
		C1785.3199,31.71,1670.67,31.71,1556.03,31.81 M1906.17,36.06C1906,144.37,1906.14,252.69,1906.1,361
		c0.24,5.5-0.58,11.11,0.4,16.54c3.16,3.79,6.97,6.99,10.37,10.59c14.67,14.6,29.21,29.33,43.96,43.86
		c0.17-91.66,0.02-183.33,0.0701-274.99c-0.14-21.94,0.28-43.92-0.1901-65.84c-3.0399-4.44-7.5599-7.71-11.1499-11.71
		C1935.09,64.99,1920.63,50.52,1906.17,36.06 M1560.75,123.09c16.67,17.36,34.04,34.06,50.91,51.25c1.58,1.37,3.01,3.55,5.38,3.38
		c21.6699,0.06,43.35-0.04,65.0299,0.05c1.8101,0.05,3.8201-0.1,5.02-1.68c17.5801-17.71,35.3101-35.28,52.9-52.98
		C1680.24,122.93,1620.49,122.97,1560.75,123.09 M1795.36,206.36c-81.72,81.83-163.67,163.45-245.26,245.4
		c18.74,18.72,37.55,37.38,56.16,56.24c5.74-5.15,10.9399-10.88,16.49-16.25c58-58,116-116,174.01-174
		c3.66-4.06,8.22-7.41,11.35-11.91c0.5701-7.92,0.04-15.9,0.22-23.84c-0.13-29.39,0.27-58.78-0.2-88.16
		C1803.63,197.77,1799.63,202.21,1795.36,206.36 M168.83,381.88c-30.26,16.61-57.04,39.43-78.54,66.42
		c-28.9,36.73-48.38,81.15-54.19,127.62c-2.83,21.75-2.26,43.78-0.4,65.58c2.42,26.65,7.79,53.03,16.21,78.43
		c11.33,34.83,27.94,67.76,47.52,98.65c21.44,33.75,46.46,65.1,72.99,94.96c20.35,22.95,41.98,44.71,63.3,66.7401
		c71.87,73.48,145.82,144.88,219.41,216.62c1.1,1.0699,2.08,2.4,1.88,4.0499c-0.02,61.6901,0.01,123.38-0.02,185.0701
		c0.33,2.29-1.91,3.86-4.02,3.64c-74.73,0.11-149.47-0.12-224.2,0.12c-0.09,28.33-0.33,56.6699,0.12,84.99
		c74.05-0.04,148.09,0.03,222.14-0.03c1.75,0.08,3.71-0.12,5.24,0.97c1.32,2.53,0.56,5.54,0.75,8.3
		c-0.03,73.01-0.04,146.03,0.01,219.05c28.35,0.0499,56.7,0.0699,85.05-0.01c0.12-65.6801,0.02-131.37,0.06-197.05
		c0.24-10.15-0.52-20.34,0.42-30.4399c1.43-0.38,2.89-0.75,4.39-0.78c74.54-0.0901,149.09,0.09,223.64-0.0901
		c-0.05-28.23-0.1201-56.45,0.04-84.6799c-4.53-0.59-9.09-0.29-13.63-0.33c-70.33-0.02-140.65,0.0399-210.97-0.02
		c-2.67,0.36-4.3-2.2101-3.9-4.61c0-61.04,0.02-122.0701,0-183.1001c0.02-1.6,0.04-3.4099,1.37-4.51
		c77.1-75.2,154.62-150,229.73-227.22c12.34-13.02,25.31-25.5,37.1-39.0099c-19.87-21.54-38.88-43.9-56.57-67.27
		c-30.9,32.03-62.1,63.78-93.39,95.43c-52.38,52.95-104.93,105.74-157.63,158.37c-1.64,2.27-4.82,2.1901-6.42-0.0699
		C427.35,1048.64,358.4,979.6,290.09,909.92c-25.71-26.31-51.65-52.43-75.49-80.47c-25.41-29.77-48.85-61.61-66.17-96.83
		c-18.38-37.07-28.45-78.21-29.1-119.59c-0.73-21.6201,3.4-43.28,11.32-63.3701c12.12-30.43,32.7-57.37,58.44-77.56
		c24.38-18.94,53.99-31.9,85-33.97c19.62-0.88,39.38,0.71,58.55,5.06c31.45,6.99,60.42,22.67,85.49,42.64
		c29.58,23.49,54.89,51.67,81.62,78.21c19.21-19.89,38.39-39.85,58.61-58.72c23.33-21.63,49.28-41.12,79.02-52.99
		c23-9.37,47.84-13.92,72.62-14.36c16.69-0.68,33.49,1.61,49.35,6.87c33.17,10.91,62.26,32.72,83.51,60.27
		c18.35,23.43,31.1,51.43,35.4,80.96c2.65,16.96,1.61,34.22,0.08,51.23c-4.29,42.98-19.33,84.5-41.8,121.27
		c-1.36,2.38-3.8,5.02-2.02,7.86c11.25,28.97,26.88,56.21,45.43,81.11c33.22-45.56,60.24-96.39,74.19-151.27
		c6.2-24.27,9.56-49.22,10.6-74.23c1.47-30.71-2.08-61.79-11.72-91.04c-8.76-27.23-22.06-52.97-39.03-75.98
		c-21.52-29.06-49.18-53.53-80.59-71.43c-36.78-20.76-79.13-31.76-121.39-30.84c-42.99,0.2-86.61,7.68-125.4,26.84
		c-31.21,15.31-58.35,37.74-82.47,62.55c-1.6,1.47-3.41,3.92-5.89,2.83c-1.79-1.26-3.23-2.92-4.76-4.45
		c-23.82-24.15-50.48-46.03-81.1-61c-39.4-19.42-83.75-26.79-127.4-26.79C244.62,352.22,204.25,362.56,168.83,381.88
		 M1819.74,382.03c3.04,3.68,6.61,6.87,9.95,10.27c13.9901,14.01,28.02,27.99,41.9901,42.03c1.2,1.13,2.5399,2.47,4.38,2.26
		c26.9199,0.08,53.84-0.18,80.7599,0.12c-16.6799-16.5-33.22-33.14-49.7899-49.73c-2.3401-2.12-4.35-5.58-7.9601-5.07
		C1872.63,381.97,1846.1801,381.75,1819.74,382.03 M210.09,465.17c-19.07,11.55-35.96,26.7-49.53,44.39
		c-20.6,27.04-34.4,60.17-34.94,94.46c-0.45,26.69,2.8,53.5,10.23,79.16c10.09,35.11,27.57,67.7,48.48,97.51
		c20.51,29.26,44.28,56.04,68.65,82.11c-16.29-21.87-31.67-44.57-43.59-69.16c-18.44-37.07-28.46-78.24-29.17-119.63
		c-0.68-19.31,2.62-38.65,8.87-56.9c11.48-32.69,32.78-61.68,59.79-83.27c25.92-20.41,57.89-34.17,91.16-35.01
		c26.05-0.55,52.37,3.1,76.87,12.17c14.82,5.35,28.74,12.86,42.11,21.12c-6.46-7.54-13.96-14.12-21.1-21
		c-24.01-22.32-50.69-42.74-81.64-54.35c-24.59-9.33-51.06-13.3-77.31-12.69C254.67,444.89,230.85,452.65,210.09,465.17
		 M688.46,445.64c-21.14,2.58-41.93,8.42-61.07,17.82c-17.79,8.66-34.08,20.13-49.28,32.75c-26.34,22.22-49.8,47.55-73.94,72.08
		c3.92,4.26,8.33,8.03,12.43,12.11c13.29,13.04,26.14,26.52,39.2,39.78c1.64,1.38,2.87,3.81,4.95,4.36
		c20.32-20.28,39.81-41.44,61.12-60.71c22.95-21.07,48.63-39.76,77.81-51.18c18.89-7.54,39-11.77,59.25-13.3
		c15.18-0.95,30.58-1.15,45.52,2.16c13.02,2.45,25.28,7.6,37.44,12.7c-4.2-6.36-9.25-12.11-14.36-17.73
		c-21.84-23.28-49.83-41.53-81.13-48.83C727.47,442.98,707.7,443.39,688.46,445.64 M915.98,444.08
		c17.64,18.35,36.6,35.46,53.27,54.73c25.85-0.55,51.94,2.84,76.33,11.6c16.3101,5.9,31.8201,13.93,46.2201,23.58
		c-24.4801-24.35-49.79-48.62-80.1801-65.52C982.62,452.05,949.19,444.21,915.98,444.08 M1309.8101,446.9
		c-21.5,3.61-42.4601,10.73-61.4801,21.42c-13.4399,7.45-25.97,16.44-37.85,26.15c-27.3099,22.58-51.3099,48.74-76.1699,73.91
		c19.3199,18.19,37.73,37.32,56.09,56.46c3.14-2.3,5.61-5.35,8.36-8.08c13.45-13.87,27.01-27.64,40.8199-41.16
		c23.55-22.74,49.12-44.16,79.03-58.03c21.05-9.97,43.92-15.84,67.09-17.89c19-1.67,38.4301-1.49,56.92,3.71
		c10.22,2.44,19.77,6.87,29.45,10.82c-4.63-7.26-10.45-13.68-16.36-19.91c-22.08-22.96-50.38-40.56-81.72-47.28
		C1352.89,442.47,1331,443.61,1309.8101,446.9 M929.98,467.16c21.51,34.45,35.83,73.6,39.84,114.11
		c1.77,13.85,1.35,27.84,1.11,41.76c-1.84,43.71-11.59,87.04-28.4,127.42c-15.07,36.52-35.69,70.49-58.67,102.53
		c15.94,21.84,33.94,42.09,52.19,62.02c18.3-24.36,34.62-50.24,48.44-77.4c19.76-38.85,33.56-80.92,38.7-124.28
		c2.9999-25.57,4.05-51.56,0.66-77.14c-5.12-40.07-20.36-78.64-43.06-111.97C966.53,502.97,948.36,484.79,929.98,467.16
		 M1566.9,477.86c1.62,3.43,3.61,6.67,5.33,10.06c21.21,40.86,31.55,87.4,29.11,133.4c-1.5399,45.69-11.97,91-30,132.99
		c-15.2999,36.01-35.88,69.57-58.9099,101.12c-22.0801,30.2-46.5801,58.56-72.15,85.84c-75.52,79.13-153.9,155.45-232.3301,231.6699
		c-24.3999,24.1101-49.3099,47.7201-73.36,72.1801c13.89,14.52,28.38,28.47,42.51,42.78c4.65,4.41,8.8201,9.34,13.8,13.39
		c90.0399-88.75,181.6699-175.91,269.91-266.48c25.21-25.79,50.33-51.73,73.5499-79.36c25.9501-30.7,50-63.16,69.85-98.17
		c19.23-33.8,34.3101-70.11,43.05-108.0601c4.14-18.52,6.8-37.37,8.14-56.3c1.36-22.8,1.08-45.8-3.05-68.32
		c-7.0499-39.23-23.45-76.74-47.28-108.68c-6.6799-7.62-14.24-14.42-21.2799-21.71C1578.11,488.81,1572.99,482.81,1566.9,477.86
		 M329.05,505.79c-29.4,3.35-57.06,16.72-79.64,35.58c-26.82,22.26-47.21,52.37-57.12,85.84c-4.79,15.77-6.44,32.37-5.86,48.81
		c0.42,15.4,2,30.77,4.92,45.91c7.02,36.29,22.24,70.61,41.93,101.75c33.49,53.06,78.12,97.65,121.57,142.46
		c17,17.34,33.7,34.96,50.99,52.02c30.5,30.84,61.24,61.45,91.85,92.19c0.7,0.52,1.74,2.16,2.67,0.98
		c58.75-58.5599,117.22-117.42,175.51-176.45c24.69-25.28,49.72-50.26,73.94-75.99c-35.42-47.76-65.13-100.77-79.94-158.71
		c-10.98-43.25-15.33-88.71-8.44-132.98c1.57-10.61,4.47-20.95,6.81-31.39c-18.05,10.81-33.92,24.86-49.29,39.12
		c-19.22,18.11-37.28,37.41-55.86,56.16c-1.57,2.03-4.35,1.37-5.7401-0.47c-12.85-13.14-25.66-26.32-38.58-39.39
		c-22.76-22.5-46.38-44.72-74.35-60.68C409.82,510.49,368.78,502.22,329.05,505.79 M974.6,505.08
		c3.1801,4.86,6.95,9.29,10.1801,14.12c23.5099,33.69,39.03,72.9,44.78,113.59c3.24,21.58,2.96,43.53,1.35,65.2401
		c-3.4301,43.24-14.73,85.78-32.7,125.24c-15.13,33.54-34.7401,64.88-56.46,94.52c-1.01,0.97-1.08,2.41,0.14,3.27
		c34.96,37.03,70.66,73.37,106.67,109.39c26.97,27.2301,54.0499,54.3601,81.23,81.39c11.4099-10.6,22.1599-21.88,33.24-32.8199
		c55.4-55.59,110.78-111.21,165.78-167.2c25.5199-26.16,51.4099-52,75.46-79.53c23.0499-26.46,44.73-54.35,62-84.99
		c17.88-31.46,30.63-66.09,35.22-102.08c2.4401-19.2599,3.62-38.8799,1.0601-58.1899c-2.99-20.7-10.49-40.6-20.99-58.63
		c-1.7401-3.34-5.4501-4.69-8.54-6.4301c-11.42-6.1299-23.64-10.76-36.26-13.68c-19.88-4.81-40.64-3.85-60.76-1.29
		c-18.73,2.59-37.11,7.82-54.27,15.79c-18.4199,8.54-35.28,20.12-50.9199,33c-27.8,23.09-52.1801,49.9-77.64,75.45
		c-1.61,2.11-4.3101,0.87-5.67-0.78c-19.08-19.25-37.5699-39.1-57.4399-57.54c-22.2401-20.81-46.65-39.99-74.79-52.14
		C1029.91,509.89,1002.17,504.61,974.6,505.08 M792.88,506.89c-17.27,21.77-29.8,47.57-34.89,74.97c-2.5,12.24-2.11,24.78-1.92,37.2
		c0.81,12.66,1.79,25.34,4.13,37.84c4.76,29.28,15.53,57.34,29.43,83.45c20.22,37.81,47.27,71.41,75.84,103.1801
		c5,5.06,9.27,10.84,14.7,15.47c-9.13-13.31-18.74-26.34-26.89-40.3c-10.8101-18.07-20.07-37.11-27.07-56.98
		c-10.44-29.71-15.76-61.22-15.68-92.72c-0.3101-44.66,20.22-87.75,51.14-119.33c-2.12-6.03-5.24-11.62-8.14-17.29
		c-1.53-2.67-2.8-5.75-5.52-7.43c-15.69-9.27-33.12-15.57-51.09-18.56C795.62,506.39,793.76,505.56,792.88,506.89 M850.27,572.27
		c-21.53,29.1-35.46,65.13-33.31,101.72c0.08,17.55,2.2,35.08,5.74,52.26c2.27,9.86,4.49,19.82,8.27,29.23
		c10.69-16.7,19.13-34.81,26.1201-53.35c11.95-31.92,17.3199-66.16,16.5099-100.2c-0.5099-15.68-3.91-31.13-9.12-45.9
		C858.98,560.71,854.71,566.62,850.27,572.27 M713.46,1039.46c-53.95,54.11-109.01,107.0801-163.6,160.54
		c3.73,4.3101,7.99,8.1,11.94,12.2c14.79,14.6801,29.38,29.5701,44.29,44.14c1.48-1.2799,2.94-2.5699,4.36-3.9
		c82.95-81.0399,166.52-161.48,246.77-245.22c4.23-4.71,9.1201-8.85,12.86-13.97c-18.67-18.81-37.07-37.9-55.32-57.12
		C781.44,971,747.68,1005.47,713.46,1039.46 M548.42,1207.96c0.09,58.28,0.19,116.5701-0.05,174.8501
		c18.18,0.59,36.39,0.1899,54.58,0.21c0.09-18.01,0.02-36.02,0.04-54.02c-0.16-22.25,0.32-44.52-0.23-66.74
		c-3.58-4.4-8-8.03-11.87-12.16C576.68,1236.12,562.89,1221.64,548.42,1207.96 M776.93,1394.6899
		c-0.5,25.4301-0.01,50.88-0.25,76.3101c0.07,2.5601-0.39,5.65,1.91,7.45c12.35,12.3,24.66,24.64,36.99,36.9601
		c5.24,4.9399,9.88,10.5499,15.56,15.01c0.52-17.8,0.07-35.62,0.22-53.42c-0.19-9.29,0.36-18.6-0.23-27.86
		c-2.68-4.25-6.97-7.24-10.3-10.97c-9.17-9.17-18.33-18.3301-27.5-27.5C787.81,1405.4,782.79,1399.59,776.93,1394.6899
		 M233.07,1481.13c17.5,17.42,34.94,34.9,52.39,52.37c1.23,1.21,2.74,2.3101,4.57,2.17c53.56,0.0399,107.12-0.03,160.68,0.0299
		c0.04-18.1899-0.06-36.3899,0.05-54.58c-20.92-0.25-41.84-0.05-62.76-0.11C336.36,1481.09,284.71,1480.84,233.07,1481.13
		 M552.98,1481.1c17.55,17.76,35.32,35.3,52.91,53.02c2.28,2.59,6.1,1.26,9.12,1.59c70.64-0.01,141.28-0.12,211.92,0.05
		c-17.62-17.9301-35.56-35.55-53.26-53.41c-1.37-1.71-3.73-1.25-5.63-1.35C696.35,1481.08,624.66,1480.88,552.98,1481.1
		 M548.27,1485.14c0.17,72.6,0.01,145.21,0.08,217.8099c-0.24,2.0801,1.59,3.4501,2.84,4.8501
		c17.35,17.0199,34.21,34.5499,51.73,51.3999c0.18-71.3999,0-142.8099,0.09-214.21c-0.14-2.26,0.48-4.96-1.51-6.5699
		C583.75,1520.67,565.95,1502.97,548.27,1485.14 M461.85,1709.39c2.66,3.5499,6.06,6.4399,9.15,9.62
		c13.47,13.52,27.03,26.96,40.47,40.52c2.11,2.01,4.09,5.0499,7.45,4.45c26.44-0.03,52.88,0.11,79.32-0.0699
		c-16.68-17.36-34.05-34.05-50.9-51.24c-1.57-1.4-3.03-3.5701-5.39-3.3401C515.26,1709.34,488.55,1709.24,461.85,1709.39z"/>
	<path fill="#66ADFF" stroke="#66ADFF" stroke-width="0.0938" d="M1556.03,31.81c114.64-0.1,229.2899-0.1,343.9399,0
		c0.0601,107.4,0.01,214.79,0.03,322.19c-0.03,7.23,0.0699,14.47-0.12,21.7c-28.26-0.14-56.53-0.1-84.8-0.01
		c-0.51-23.22-0.0699-46.46-0.21-69.69c0.01-39.35-0.03-78.7,0.02-118.05c-0.17-1.88,0.28-4.63-2.01-5.35
		c-1.78-0.88-3.36,0.67-4.53,1.76c-88.38,88.35-176.7,176.77-265.13,265.07c-1.47,1.7-0.24,3.96,0.89,5.48
		c31.66,42.53,50.48,94.95,51.0601,148.11c0.7699,46.03-7.4301,92.18-24.11,135.09c-15.0801,39.26-36.4801,75.83-61.03,109.89
		c-23.75,32.82-50.3301,63.49-78.1801,92.88C1333.8,1043.35,1230.9,1141,1129.89,1240.52c-13.25-12.55-25.9501-25.66-39.08-38.3301
		C1007.64,1121.04,923.96,1040.38,843.19,956.83c-25.88-26.56-50.96-53.94-73.97-83.04c-28.18-35.49-53.37-73.64-71.99-115.06
		c-15.53-34.45-26.25-71.2-30.38-108.82c-2.29-20.89-3.25-42.0099-1.64-63c1.5-17.8199,4.81-35.52,10.08-52.62
		c0.59-1.59,0.9-3.56,2.56-4.41c32.61-18.86,70.95-26.43,108.38-24.71c-6.57,9.28-13.13,18.63-18.21,28.85
		c-11.1,21.61-17.84,45.65-18.37,70c-0.66,38.24,6.68,76.58,21.46,111.86c17.49,41.86,44.36,79.03,73.61,113.42
		c22.6201,26.59,47.14,51.47,71.54,76.42c68.9,70.44,138.61,140.0801,208.22,209.8101c1.8101,1.53,3.52,4.4099,6.1801,4.09
		c5.24-3.63,9.0599-8.92,13.72-13.23c56.38-56.29,112.5-112.85,168.49-169.52c23.89-24.43,48-48.66,71.5-73.47
		c26.26-28.04,51.4401-57.29,72.6901-89.37c18.98-28.51,34.5199-59.6,43.37-92.79c7.38-27.07,10.5599-55.28,9.4299-83.31
		c-2.48-35.27-17.14-69.13-39.51-96.32c-22.36-27.65-52.87-49.09-87.24-58.73c-24.41-6.93-50.29-5.84-75.11-1.92
		c-34.78,5.56-67.1801,21.68-94.71,43.32c-30.3201,23.81-56.39,52.36-83.37,79.74c-25.9801-26-50.79-53.35-79.4401-76.51
		c-18.7999-15.22-39.66-28.1-62.33-36.7c-24.23-9.27-50.32-13.19-76.2-12.88c-2.52,0.43-4.01-1.79-5.58-3.3
		c-10.68-10.98-21.56-21.82-33.47-31.48c-15.55-12.83-32.8-23.43-50.76-32.51c17.49-6.7,35.49-12.26,54.05-15.06
		c21.38-3.54,43.17-3.29,64.73-1.95c35.06,2.37,70.04,10.32,101.68,25.86c31.86,15.57,59.4,38.59,83.97,63.9
		c1.7001,2.52,5.02,2.26,6.6901-0.15c23.09-23.69,48.66-45.45,78.11-60.84c40-21.16,85.7-29.41,130.63-29.65
		c47.16-1.03,94.42,12.65,133.9301,38.35c1.96,1.78,4.6599,0.82,6.1399-1.06c89.3-89.35,178.6801-178.62,267.9501-267.99
		c2.09-2.17-0.12-5.76-2.99-5.17c-63.66-0.08-127.3201-0.05-190.98-0.02C1555.95,88.51,1556,60.16,1556.03,31.81z"/>
	<path fill="#007FCC" stroke="#007FCC" stroke-width="0.0938" d="M1906.17,36.06c14.46,14.46,28.9199,28.93,43.39,43.39
		c3.59,4,8.11,7.27,11.1499,11.71c0.4701,21.92,0.05,43.9,0.1901,65.84c-0.05,91.66,0.1,183.33-0.0701,274.99
		c-14.75-14.53-29.2899-29.26-43.96-43.86c-3.4-3.6-7.21-6.8-10.37-10.59c-0.98-5.43-0.16-11.04-0.4-16.54
		C1906.14,252.69,1906,144.37,1906.17,36.06z"/>
	<path fill="#007FCC" stroke="#007FCC" stroke-width="0.0938" d="M1560.75,123.09c59.74-0.12,119.49-0.16,179.24,0.02
		c-17.59,17.7-35.3199,35.27-52.9,52.98c-1.2,1.58-3.21,1.73-5.02,1.68c-21.6799-0.09-43.36,0.01-65.0299-0.05
		c-2.37,0.17-3.8-2.01-5.38-3.38C1594.79,157.15,1577.42,140.45,1560.75,123.09z"/>
	<path fill="#007FCC" stroke="#007FCC" stroke-width="0.0938" d="M1795.36,206.36c4.27-4.15,8.27-8.59,12.77-12.52
		c0.47,29.38,0.0699,58.77,0.2,88.16c-0.1799,7.94,0.3501,15.92-0.22,23.84c-3.13,4.5-7.6899,7.85-11.35,11.91
		c-58.01,58-116.01,116-174.01,174c-5.55,5.37-10.75,11.1-16.49,16.25c-18.61-18.86-37.42-37.52-56.16-56.24
		C1631.6899,369.81,1713.64,288.19,1795.36,206.36z"/>
	<path fill="#FF7F99" stroke="#FF7F99" stroke-width="0.0938" d="M168.83,381.88c35.42-19.32,75.79-29.66,116.16-29.15
		c43.65,0,88,7.37,127.4,26.79c30.62,14.97,57.28,36.85,81.1,61c1.53,1.53,2.97,3.19,4.76,4.45c2.48,1.09,4.29-1.36,5.89-2.83
		c24.12-24.81,51.26-47.24,82.47-62.55c38.79-19.16,82.41-26.64,125.4-26.84c42.26-0.92,84.61,10.08,121.39,30.84
		c31.41,17.9,59.0699,42.37,80.59,71.43c16.97,23.01,30.27,48.75,39.03,75.98c9.64,29.25,13.19,60.33,11.72,91.04
		c-1.04,25.01-4.4,49.96-10.6,74.23c-13.95,54.88-40.97,105.71-74.19,151.27c-18.55-24.9-34.18-52.14-45.43-81.11
		c-1.78-2.84,0.66-5.48,2.02-7.86c22.47-36.77,37.51-78.29,41.8-121.27c1.53-17.01,2.5699-34.27-0.08-51.23
		c-4.3-29.53-17.05-57.53-35.4-80.96c-21.25-27.55-50.34-49.36-83.51-60.27c-15.86-5.26-32.66-7.55-49.35-6.87
		c-24.78,0.44-49.62,4.99-72.62,14.36c-29.74,11.87-55.69,31.36-79.02,52.99c-20.22,18.87-39.4,38.83-58.61,58.72
		c-26.73-26.54-52.04-54.72-81.62-78.21c-25.07-19.97-54.04-35.65-85.49-42.64c-19.17-4.35-38.93-5.94-58.55-5.06
		c-31.01,2.07-60.62,15.03-85,33.97c-25.74,20.19-46.32,47.13-58.44,77.56c-7.92,20.09-12.05,41.75-11.32,63.3701
		c0.65,41.3799,10.72,82.52,29.1,119.59c17.32,35.22,40.76,67.06,66.17,96.83c23.84,28.04,49.78,54.16,75.49,80.47
		c68.31,69.68,137.26,138.72,206.23,207.7501c1.6,2.26,4.78,2.34,6.42,0.0699c52.7-52.63,105.25-105.42,157.63-158.37
		c31.29-31.65,62.49-63.4,93.39-95.43c17.69,23.37,36.7,45.73,56.57,67.27c-11.79,13.5099-24.76,25.99-37.1,39.0099
		c-75.11,77.22-152.63,152.02-229.73,227.22c-1.33,1.1001-1.35,2.91-1.37,4.51c0.02,61.03,0,122.0601,0,183.1001
		c-0.4,2.3999,1.23,4.97,3.9,4.61c70.3199,0.0599,140.64,0,210.97,0.02c4.54,0.0399,9.1-0.26,13.63,0.33
		c-0.16,28.23-0.09,56.45-0.04,84.6799c-74.55,0.1801-149.1,0-223.64,0.0901c-1.5,0.03-2.96,0.4-4.39,0.78
		c-0.94,10.1-0.18,20.2899-0.42,30.4399c-0.04,65.6801,0.06,131.37-0.06,197.05c-28.35,0.08-56.7,0.0599-85.05,0.01
		c-0.05-73.02-0.04-146.04-0.01-219.05c-0.19-2.76,0.57-5.77-0.75-8.3c-1.53-1.09-3.49-0.89-5.24-0.97
		c-74.05,0.0601-148.09-0.01-222.14,0.03c-0.45-28.3201-0.21-56.66-0.12-84.99c74.73-0.24,149.47-0.01,224.2-0.12
		c2.11,0.22,4.35-1.35,4.02-3.64c0.03-61.6901,0-123.38,0.02-185.0701c0.2-1.6499-0.78-2.98-1.88-4.0499
		c-73.59-71.74-147.54-143.14-219.41-216.62c-21.32-22.03-42.95-43.79-63.3-66.7401c-26.53-29.86-51.55-61.21-72.99-94.96
		c-19.58-30.89-36.19-63.82-47.52-98.65c-8.42-25.4-13.79-51.78-16.21-78.43c-1.86-21.8-2.43-43.83,0.4-65.58
		c5.81-46.47,25.29-90.89,54.19-127.62C111.79,421.31,138.57,398.49,168.83,381.88z"/>
	<path fill="#007FCC" stroke="#007FCC" stroke-width="0.0938" d="M1819.74,382.03c26.4401-0.28,52.89-0.06,79.33-0.12
		c3.6101-0.51,5.62,2.95,7.9601,5.07c16.5699,16.59,33.11,33.23,49.7899,49.73c-26.9199-0.3-53.84-0.04-80.7599-0.12
		c-1.8401,0.21-3.1801-1.13-4.38-2.26c-13.9701-14.04-28-28.02-41.9901-42.03C1826.35,388.9,1822.78,385.71,1819.74,382.03z"/>
	<path fill="#CC3366" stroke="#CC3366" stroke-width="0.0938" d="M210.09,465.17c20.76-12.52,44.58-20.28,68.88-21.09
		c26.25-0.61,52.72,3.36,77.31,12.69c30.95,11.61,57.63,32.03,81.64,54.35c7.14,6.88,14.64,13.46,21.1,21
		c-13.37-8.26-27.29-15.77-42.11-21.12c-24.5-9.07-50.82-12.72-76.87-12.17c-33.27,0.84-65.24,14.6-91.16,35.01
		c-27.01,21.59-48.31,50.58-59.79,83.27c-6.25,18.25-9.55,37.59-8.87,56.9c0.71,41.39,10.73,82.56,29.17,119.63
		c11.92,24.59,27.3,47.29,43.59,69.16c-24.37-26.07-48.14-52.85-68.65-82.11c-20.91-29.81-38.39-62.4-48.48-97.51
		c-7.43-25.66-10.68-52.47-10.23-79.16c0.54-34.29,14.34-67.42,34.94-94.46C174.13,491.87,191.02,476.72,210.09,465.17z"/>
	<path fill="#CC3366" stroke="#CC3366" stroke-width="0.0938" d="M688.46,445.64c19.24-2.25,39.0099-2.66,57.94,2.01
		c31.3,7.3,59.29,25.55,81.13,48.83c5.11,5.62,10.16,11.37,14.36,17.73c-12.16-5.1-24.42-10.25-37.44-12.7
		c-14.94-3.31-30.34-3.11-45.52-2.16c-20.25,1.53-40.36,5.76-59.25,13.3c-29.18,11.42-54.86,30.11-77.81,51.18
		c-21.31,19.27-40.8,40.43-61.12,60.71c-2.08-0.55-3.31-2.98-4.95-4.36c-13.06-13.26-25.91-26.74-39.2-39.78
		c-4.1-4.08-8.51-7.85-12.43-12.11c24.14-24.53,47.6-49.86,73.94-72.08c15.2-12.62,31.49-24.09,49.28-32.75
		C646.53,454.06,667.32,448.22,688.46,445.64z"/>
	<path fill="#007FCC" stroke="#007FCC" stroke-width="0.0938" d="M915.98,444.08c33.21,0.13,66.64,7.97,95.64,24.39
		c30.39,16.9,55.7,41.17,80.1801,65.52c-14.4-9.65-29.91-17.68-46.2201-23.58c-24.39-8.76-50.48-12.15-76.33-11.6
		C952.58,479.54,933.62,462.43,915.98,444.08z"/>
	<path fill="#007FCC" stroke="#007FCC" stroke-width="0.0938" d="M1309.8101,446.9c21.1899-3.29,43.08-4.43,64.1799,0.12
		c31.34,6.72,59.64,24.32,81.72,47.28c5.91,6.23,11.73,12.65,16.36,19.91c-9.6799-3.95-19.23-8.38-29.45-10.82
		c-18.49-5.2-37.92-5.38-56.92-3.71c-23.1699,2.05-46.0399,7.92-67.09,17.89c-29.91,13.87-55.48,35.29-79.03,58.03
		c-13.8099,13.52-27.37,27.29-40.8199,41.16c-2.75,2.73-5.22,5.78-8.36,8.08c-18.36-19.14-36.77-38.27-56.09-56.46
		c24.86-25.17,48.86-51.33,76.1699-73.91c11.88-9.71,24.41-18.7,37.85-26.15C1267.35,457.63,1288.3101,450.51,1309.8101,446.9z"/>
	<path fill="#CC3366" stroke="#CC3366" stroke-width="0.0938" d="M929.98,467.16c18.38,17.63,36.55,35.81,50.81,57.05
		c22.7,33.33,37.94,71.9,43.06,111.97c3.39,25.58,2.34,51.57-0.66,77.14c-5.14,43.36-18.94,85.43-38.7,124.28
		c-13.82,27.16-30.14,53.04-48.44,77.4c-18.25-19.93-36.25-40.18-52.19-62.02c22.98-32.04,43.6-66.01,58.67-102.53
		c16.81-40.38,26.56-83.71,28.4-127.42c0.24-13.92,0.66-27.91-1.11-41.76C965.81,540.76,951.49,501.61,929.98,467.16z"/>
	<path fill="#007FCC" stroke="#007FCC" stroke-width="0.0938" d="M1566.9,477.86c6.09,4.95,11.21,10.95,16.89,16.35
		c7.0399,7.29,14.6,14.09,21.2799,21.71c23.8301,31.94,40.2301,69.45,47.28,108.68c4.13,22.52,4.41,45.52,3.05,68.32
		c-1.34,18.93-4,37.78-8.14,56.3c-8.74,37.95-23.8201,74.26-43.05,108.0601c-19.85,35.0099-43.8999,67.47-69.85,98.17
		c-23.22,27.63-48.34,53.57-73.5499,79.36c-88.2401,90.5699-179.8701,177.73-269.91,266.48c-4.98-4.05-9.15-8.98-13.8-13.39
		c-14.13-14.3101-28.62-28.26-42.51-42.78c24.05-24.46,48.9601-48.0699,73.36-72.1801
		C1286.38,1096.72,1364.76,1020.4,1440.28,941.27c25.5699-27.28,50.0699-55.64,72.15-85.84
		c23.0299-31.55,43.61-65.11,58.9099-101.12c18.03-41.99,28.4601-87.3,30-132.99c2.4401-46-7.9-92.54-29.11-133.4
		C1570.51,484.53,1568.52,481.29,1566.9,477.86z"/>
	<path fill="#007FCC" stroke="#007FCC" stroke-width="0.0938" d="M792.88,506.89c0.88-1.33,2.74-0.5,4.04-0.5
		c17.97,2.99,35.4,9.29,51.09,18.56c2.72,1.68,3.99,4.76,5.52,7.43c2.9,5.67,6.02,11.26,8.14,17.29
		c-30.92,31.58-51.45,74.67-51.14,119.33c-0.08,31.5,5.24,63.01,15.68,92.72c7,19.8701,16.2599,38.91,27.07,56.98
		c8.15,13.96,17.7599,26.99,26.89,40.3c-5.43-4.63-9.7-10.41-14.7-15.47C836.9,811.76,809.85,778.16,789.63,740.35
		c-13.9-26.11-24.67-54.17-29.43-83.45c-2.34-12.5-3.32-25.1801-4.13-37.84c-0.19-12.42-0.58-24.96,1.92-37.2
		C763.08,554.46,775.61,528.66,792.88,506.89z"/>
	<path fill="#CC3366" stroke="#CC3366" stroke-width="0.0938" d="M713.46,1039.46c34.22-33.99,67.98-68.46,101.3-103.33
		c18.25,19.22,36.65,38.31,55.32,57.12c-3.74,5.12-8.63,9.26-12.86,13.97c-80.25,83.74-163.8199,164.1801-246.77,245.22
		c-1.42,1.3301-2.88,2.6201-4.36,3.9c-14.91-14.5699-29.5-29.46-44.29-44.14c-3.95-4.1-8.21-7.8899-11.94-12.2
		C604.45,1146.54,659.51,1093.5699,713.46,1039.46z"/>
	<path fill="#CC3366" stroke="#CC3366" stroke-width="0.0938" d="M548.42,1207.96c14.47,13.6801,28.26,28.16,42.47,42.14
		c3.87,4.13,8.29,7.76,11.87,12.16c0.55,22.22,0.07,44.49,0.23,66.74c-0.02,18,0.05,36.01-0.04,54.02
		c-18.19-0.02-36.4,0.38-54.58-0.21C548.61,1324.53,548.51,1266.24,548.42,1207.96z"/>
	<path fill="#CC3366" stroke="#CC3366" stroke-width="0.0938" d="M776.93,1394.6899c5.86,4.9,10.88,10.7101,16.4,15.9801
		c9.17,9.1699,18.33,18.33,27.5,27.5c3.33,3.73,7.62,6.72,10.3,10.97c0.59,9.26,0.04,18.5699,0.23,27.86
		c-0.15,17.8,0.3,35.62-0.22,53.42c-5.68-4.4601-10.32-10.0701-15.56-15.01c-12.33-12.3201-24.64-24.66-36.99-36.9601
		c-2.3-1.7999-1.84-4.8899-1.91-7.45C776.92,1445.5699,776.43,1420.12,776.93,1394.6899z"/>
	<path fill="#CC3366" stroke="#CC3366" stroke-width="0.0938" d="M233.07,1481.13c51.64-0.29,103.29-0.04,154.93-0.12
		c20.92,0.0599,41.84-0.14,62.76,0.11c-0.11,18.1901-0.01,36.39-0.05,54.58c-53.56-0.0599-107.12,0.01-160.68-0.0299
		c-1.83,0.14-3.34-0.9601-4.57-2.17C268.01,1516.03,250.57,1498.55,233.07,1481.13z"/>
	<path fill="#CC3366" stroke="#CC3366" stroke-width="0.0938" d="M552.98,1481.1c71.68-0.22,143.37-0.02,215.06-0.1
		c1.9,0.1,4.26-0.36,5.63,1.35c17.7,17.86,35.64,35.48,53.26,53.41c-70.64-0.17-141.28-0.0601-211.92-0.05
		c-3.02-0.33-6.84,1-9.12-1.59C588.3,1516.4,570.53,1498.86,552.98,1481.1z"/>
	<path fill="#CC3366" stroke="#CC3366" stroke-width="0.0938" d="M548.27,1485.14c17.68,17.83,35.48,35.53,53.23,53.28
		c1.99,1.61,1.37,4.3099,1.51,6.5699c-0.09,71.4,0.09,142.8101-0.09,214.21c-17.52-16.85-34.38-34.38-51.73-51.3999
		c-1.25-1.4-3.08-2.77-2.84-4.8501C548.28,1630.35,548.44,1557.74,548.27,1485.14z"/>
	<path fill="#CC3366" stroke="#CC3366" stroke-width="0.0938" d="M461.85,1709.39c26.7-0.15,53.41-0.05,80.1-0.0601
		c2.36-0.23,3.82,1.9401,5.39,3.3401c16.85,17.1899,34.22,33.88,50.9,51.24c-26.44,0.1799-52.88,0.0399-79.32,0.0699
		c-3.36,0.6-5.34-2.4399-7.45-4.45c-13.44-13.5601-27-27-40.47-40.52C467.91,1715.83,464.51,1712.9399,461.85,1709.39z"/>
</g>
</svg>
